<svg width="126" height="100" viewBox="0 0 126 100" fill="none" xmlns="http://www.w3.org/2000/svg">
<path d="M112.646 38.762C106.738 34.0663 99.254 31.2537 91.1058 31.2537H12.5659V12.5015H91.1058C103.247 12.5015 113.088 22.2928 113.088 34.3723C113.088 35.877 112.936 37.3447 112.646 38.762ZM91.1058 87.4985H21.9899C16.7853 87.4985 12.5659 83.3006 12.5659 78.1224C12.5659 72.9443 16.7853 68.7463 21.9899 68.7463H91.1058C99.254 68.7463 106.738 65.9337 112.646 61.238C112.936 62.657 113.088 64.1247 113.088 65.6277C113.088 77.7072 103.247 87.4985 91.1058 87.4985ZM125.654 34.6648C125.814 15.5983 109.763 0 90.5989 0H3.90066C1.74617 0 0.000608126 1.73669 0.000608126 3.88023V39.8749C0.000608126 42.0185 1.74617 43.7551 3.90066 43.7551H91.1058C97.0927 43.7551 102.52 46.1374 106.485 50.0008C102.52 53.8626 97.0927 56.2449 91.1058 56.2449H22.4242C10.0937 56.2449 -0.232585 66.285 0.00398586 78.5495C0.232108 90.4356 9.98898 100 21.9899 100H90.5989C109.759 100 125.811 84.4034 125.654 65.3402C125.608 59.8157 124.241 54.609 121.868 50.0008C124.241 45.3926 125.606 40.1876 125.654 34.6648Z" fill="#00DDA5"/>
</svg>
