<svg width="228" height="38" viewBox="0 0 228 38" fill="none" xmlns="http://www.w3.org/2000/svg">
<path d="M94.7519 23.6997C94.7519 22.391 95.8126 21.3297 97.1218 21.3297H111.201C115.188 21.3297 118.527 18.0667 118.451 14.0809C118.377 10.2181 115.222 7.10996 111.342 7.10996L91.4831 7.10932C90.6711 7.10932 90.012 7.76842 90.012 8.58051V10.3787C90.012 11.1908 90.6711 11.8492 91.4831 11.8492H111.263C112.569 11.8492 113.688 12.8704 113.712 14.1752C113.736 15.5049 112.666 16.5898 111.342 16.5898H97.1218C93.1953 16.5898 90.012 19.7731 90.012 23.6997V30.8096H116.981C117.793 30.8096 118.452 30.1511 118.452 29.3384V27.5408C118.452 26.7287 117.793 26.0696 116.981 26.0696H94.7519V23.6997Z" fill="#00DDA5"/>
<path d="M187.176 30.8096C191.057 30.8096 194.211 27.7008 194.284 23.8386C194.36 19.8522 191.022 16.5898 187.036 16.5898H173.034C171.73 16.5898 170.61 15.5686 170.586 14.2638C170.562 12.9348 171.632 11.8499 172.956 11.8499H192.815C193.627 11.8499 194.286 11.1908 194.286 10.3787V8.58114C194.286 7.76842 193.627 7.10996 192.815 7.10996H173.096C169.11 7.10996 165.771 10.3723 165.847 14.3582C165.921 18.221 169.075 21.3297 172.956 21.3297H187.097C188.402 21.3297 189.522 22.3502 189.546 23.6551C189.57 24.9847 188.5 26.0696 187.176 26.0696H167.317C166.505 26.0696 165.846 26.7287 165.846 27.5408V29.3384C165.846 30.1511 166.505 30.8096 167.317 30.8096H187.176Z" fill="#FAFAFA"/>
<path d="M225.994 7.10971H206.277C202.358 7.10971 199.07 10.2204 199.026 14.1386C199.006 15.9917 199.694 17.6834 200.836 18.9595C199.71 20.2172 199.026 21.8783 199.026 23.6994C199.026 27.626 202.209 30.8093 206.136 30.8093H225.994C226.807 30.8093 227.466 30.1509 227.466 29.3388V27.5412C227.466 26.7285 226.807 26.0694 225.994 26.0694H206.214C204.91 26.0694 203.79 25.0489 203.766 23.7441C203.742 22.4144 204.812 21.3295 206.136 21.3295H225.994C226.807 21.3295 227.466 20.671 227.466 19.8583V18.0607C227.466 17.2487 226.807 16.5896 225.994 16.5896H206.214C204.91 16.5896 203.79 15.569 203.766 14.2642C203.742 12.9345 204.812 11.8496 206.136 11.8496H225.994C226.807 11.8496 227.466 11.1905 227.466 10.3784V8.5809C227.466 7.76818 226.807 7.10971 225.994 7.10971Z" fill="#FAFAFA"/>
<path d="M78.1622 26.0699H61.5724V21.3293H78.1622C79.4715 21.3293 80.5321 22.3907 80.5321 23.6999C80.5321 25.0086 79.4715 26.0699 78.1622 26.0699ZM61.5724 11.8495H78.1622C79.4715 11.8495 80.5321 12.9108 80.5321 14.2201C80.5321 15.5287 79.4715 16.59 78.1622 16.59H61.5724V11.8495ZM85.2714 14.1385C85.2274 10.2202 81.9396 7.1102 78.0207 7.1102H58.3037C57.491 7.1102 56.8325 7.76867 56.8325 8.58075V29.3386C56.8325 30.1514 57.491 30.8098 58.3037 30.8098H78.1622C82.0887 30.8098 85.2721 27.6265 85.2721 23.6999C85.2721 21.8788 84.5875 20.2177 83.4618 18.96C84.604 17.6832 85.2925 15.9915 85.2714 14.1385Z" fill="#00DDA5"/>
<path d="M161.106 10.3843V8.581C161.106 7.76827 160.447 7.10981 159.635 7.10981H157.837C157.025 7.10981 156.366 7.76891 156.366 8.58163V10.3849C156.367 11.197 157.026 11.8555 157.838 11.8555H159.635C160.447 11.8555 161.106 11.197 161.106 10.3843Z" fill="#00DDA5"/>
<path d="M156.368 14.7429L156.372 29.3388C156.372 30.1509 157.03 30.8093 157.843 30.8093H159.634C160.447 30.8093 161.106 30.1509 161.106 29.3381V17.1346C161.106 16.7878 160.968 16.4544 160.722 16.209L158.409 13.8971C157.655 13.1436 156.368 13.6771 156.368 14.7429Z" fill="#FAFAFA"/>
<path d="M123.192 24.223V29.3384C123.192 30.1511 123.85 30.8096 124.663 30.8096H126.461C127.273 30.8096 127.932 30.1511 127.932 29.3384V26.6166C127.932 26.2692 127.794 25.9358 127.548 25.6904L125.234 23.3771C124.48 22.6237 123.192 23.1572 123.192 24.223Z" fill="#00DDA5"/>
<path d="M127.932 16.5896V11.8497H144.519C145.828 11.8497 146.889 12.911 146.889 14.2197C146.889 15.5289 145.828 16.5896 144.519 16.5896H127.932ZM144.05 21.3295H144.519C148.442 21.4118 151.629 18.1488 151.629 14.2197C151.629 10.2931 148.446 7.11297 144.519 7.10978H124.662C123.85 7.10978 123.192 7.76888 123.192 8.58097V21.3346H127.932V21.3295H137.975L145.274 30.455C145.453 30.6794 145.724 30.81 146.012 30.8107L149.084 30.8164C150.109 30.8183 150.68 29.6333 150.041 28.8327L144.05 21.3295Z" fill="#FAFAFA"/>
<path d="M42.4925 14.6967C40.2641 12.9163 37.4409 11.8499 34.3672 11.8499H4.74015V4.74004H34.3672C38.9471 4.74004 42.6595 8.45243 42.6595 13.0324C42.6595 13.6029 42.6022 14.1593 42.4925 14.6967ZM34.3672 33.1751H8.2951C6.33181 33.1751 4.74015 31.5835 4.74015 29.6202C4.74015 27.6569 6.33181 26.0652 8.2951 26.0652H34.3672C37.4409 26.0652 40.2641 24.9988 42.4925 23.2185C42.6022 23.7565 42.6595 24.3129 42.6595 24.8828C42.6595 29.4627 38.9471 33.1751 34.3672 33.1751ZM47.3995 13.1433C47.46 5.91419 41.4051 0.00012207 34.176 0.00012207H1.47142C0.658698 0.00012207 0.000229399 0.658588 0.000229399 1.47131V15.1187C0.000229399 15.9314 0.658698 16.5899 1.47142 16.5899H34.3672C36.6256 16.5899 38.673 17.4931 40.1685 18.9579C38.673 20.4221 36.6256 21.3253 34.3672 21.3253H8.45892C3.8076 21.3253 -0.0877365 25.132 0.00150356 29.7821C0.0875565 34.2887 3.76807 37.915 8.2951 37.915H34.176C41.4038 37.915 47.4587 32.0016 47.3995 24.7738C47.3822 22.6792 46.8666 20.7051 45.9716 18.9579C46.8666 17.2107 47.3816 15.2372 47.3995 13.1433Z" fill="#00DDA5"/>
</svg>
